# Blender v2.80 (sub 75) OBJ File: ''
# www.blender.org
mtllib floor.mtl
o Cube.002
v 10.000000 -0.100010 -10.000000
v -10.000000 -0.099990 10.000000
v -10.000000 -0.100010 -10.000000
v 10.000000 0.100010 10.000000
v -10.000000 0.100010 10.000000
v 10.000000 -0.099990 10.000000
v 10.000000 0.099990 -10.000000
v -10.000000 0.099990 -10.000000
vt -1.109323 -1.109323
vt 2.109323 2.109323
vt 2.109323 -1.109323
vt 2.109323 0.516093
vt -1.109323 0.483907
vt 2.109323 0.483907
vt 0.516093 2.109323
vt 0.483907 -1.109323
vt 0.483907 2.109323
vt 0.516093 -1.109323
vt 0.483907 2.109323
vt 0.483907 -1.109323
vt -1.109323 0.516093
vt 2.109323 0.483907
vt -1.109323 0.483907
vt 2.109323 -1.109323
vt -1.109323 2.109323
vt -1.109323 -1.109323
vt -1.109323 2.109323
vt 0.516093 2.109323
vt 2.109323 0.516093
vt -1.109323 0.516093
vt 0.516093 -1.109323
vt 2.109323 2.109323
vn 0.0000 -1.0000 0.0000
vn 0.0000 0.0000 1.0000
vn 1.0000 0.0000 0.0000
vn -1.0000 0.0000 0.0000
vn 0.0000 0.0000 -1.0000
vn 0.0000 1.0000 -0.0000
usemtl Default_OBJ
s 1
f 1/1/1 2/2/1 3/3/1
f 2/4/2 4/5/2 5/6/2
f 6/7/3 7/8/3 4/9/3
f 3/10/4 5/11/4 8/12/4
f 1/13/5 8/14/5 7/15/5
f 8/16/6 4/17/6 7/18/6
f 1/1/1 6/19/1 2/2/1
f 3/10/4 2/20/4 5/11/4
f 1/13/5 3/21/5 8/14/5
f 2/4/2 6/22/2 4/5/2
f 6/7/3 1/23/3 7/8/3
f 8/16/6 5/24/6 4/17/6
