# Blender v2.80 (sub 75) OBJ File: ''
# www.blender.org
o Cube.002
v 10.000000 0.100008 -10.000000
v -10.000000 0.100008 -10.000000
v -10.000000 0.099992 10.000000
v 10.000000 0.099992 10.000000
v 10.000000 -0.100008 10.000000
v -10.000000 -0.100008 10.000000
v -10.000000 -0.099992 -10.000000
v 10.000000 -0.099992 -10.000000
vt -1.109323 -1.109323
vt 2.109323 2.109323
vt 2.109323 -1.109323
vt 2.109323 0.516093
vt -1.109323 0.483907
vt 2.109323 0.483907
vt 0.516093 2.109323
vt 0.483907 -1.109323
vt 0.483907 2.109323
vt 0.516093 -1.109323
vt 0.483907 2.109323
vt 0.483907 -1.109323
vt -1.109323 0.516093
vt 2.109323 0.483907
vt -1.109323 0.483907
vt 2.109323 -1.109323
vt -1.109323 2.109323
vt -1.109323 -1.109323
vt -1.109323 2.109323
vt 0.516093 2.109323
vt 2.109323 0.516093
vt -1.109323 0.516093
vt 0.516093 -1.109323
vt 2.109323 2.109323
vn 0.0000 1.0000 0.0000
vn 0.0000 0.0000 1.0000
vn -1.0000 0.0000 0.0000
vn 1.0000 0.0000 0.0000
vn 0.0000 0.0000 -1.0000
vn 0.0000 -1.0000 -0.0000
s 1
f 2/1/1 4/2/1 1/3/1
f 4/4/2 6/5/2 5/6/2
f 3/7/3 7/8/3 6/9/3
f 1/10/4 5/11/4 8/12/4
f 2/13/5 8/14/5 7/15/5
s 2
f 8/16/6 6/17/6 7/18/6
f 2/1/1 3/19/1 4/2/1
f 1/10/4 4/20/4 5/11/4
f 2/13/5 1/21/5 8/14/5
s 4
f 4/4/2 3/22/2 6/5/2
f 3/7/3 2/23/3 7/8/3
f 8/16/6 5/24/6 6/17/6
