# Blender v2.80 (sub 75) OBJ File: ''
# www.blender.org
mtllib floor.mtl
o Cube.001
v 10.000000 0.100006 -10.000000
v -10.000000 0.100006 -10.000000
v -10.000000 0.099994 10.000000
v 10.000000 0.099994 10.000000
v 10.000000 -0.100006 10.000000
v -10.000000 -0.100006 10.000000
v -10.000000 -0.099994 -10.000000
v 10.000000 -0.099994 -10.000000
vt 2.109323 -1.109323
vt -1.109323 -1.109323
vt -1.109323 2.109323
vt 2.109323 2.109323
vt 2.109323 0.483907
vt 2.109323 0.516093
vt -1.109323 0.516093
vt -1.109323 0.483907
vt 0.483907 2.109323
vt 0.516093 2.109323
vt 0.516093 -1.109323
vt 0.483907 -1.109323
vt -1.109323 -1.109323
vt 2.109323 -1.109323
vt 2.109323 2.109323
vt -1.109323 2.109323
vt 0.483907 -1.109323
vt 0.516093 -1.109323
vt 0.516093 2.109323
vt 0.483907 2.109323
vt -1.109323 0.483907
vt -1.109323 0.516093
vt 2.109323 0.516093
vt 2.109323 0.483907
vn 0.0000 1.0000 0.0000
vn 0.0000 0.0000 1.0000
vn -1.0000 0.0000 0.0000
vn 0.0000 -1.0000 -0.0000
vn 1.0000 0.0000 0.0000
vn 0.0000 0.0000 -1.0000
usemtl Material.001
s 1
f 1/1/1 2/2/1 3/3/1 4/4/1
f 5/5/2 4/6/2 3/7/2 6/8/2
f 6/9/3 3/10/3 2/11/3 7/12/3
f 7/13/4 8/14/4 5/15/4 6/16/4
f 8/17/5 1/18/5 4/19/5 5/20/5
f 7/21/6 2/22/6 1/23/6 8/24/6
