# Blender v2.80 (sub 75) OBJ File: ''
# www.blender.org
mtllib wallposz.mtl
o wallnegz
v -9.999999 0.000004 9.899993
v 10.000001 3.000004 9.900006
v 10.000001 0.000004 9.899991
v -9.999999 3.000004 10.100007
v 10.000001 3.000004 10.100006
v -9.999999 3.000004 9.900007
v -9.999999 0.000004 10.099993
v 10.000001 0.000004 10.099991
vt 0.454545 0.000000
vt 0.909090 1.000000
vt 0.454545 1.000000
vt 0.939394 1.000000
vt 0.969696 0.000000
vt 0.969697 1.000000
vt 0.969697 0.150000
vt 1.000000 0.000000
vt 1.000000 0.150000
vt 0.969697 0.300000
vt 1.000000 0.150000
vt 1.000000 0.300000
vt 0.939393 0.000000
vt 0.909090 1.000000
vt 0.909090 0.000000
vt 0.454545 1.000000
vt 0.000000 0.000000
vt 0.454544 0.000000
vt 0.909089 0.000000
vt 0.969697 0.150000
vt 0.939394 1.000000
vt 0.939394 0.000000
vt 0.969697 0.000000
vt 0.000001 1.000000
vn -0.0000 0.0000 -1.0000
vn 0.0000 1.0000 0.0000
vn -1.0000 -0.0000 0.0000
vn 1.0000 0.0000 0.0000
vn 0.0000 -1.0000 0.0000
vn 0.0000 -0.0000 1.0000
usemtl Default_OBJ
s 1
f 1/1/1 2/2/1 3/3/1
f 2/4/2 4/5/2 5/6/2
f 6/7/3 7/8/3 4/9/3
f 3/10/4 5/11/4 8/12/4
f 1/13/5 8/14/5 7/15/5
f 8/16/6 4/17/6 7/18/6
f 1/1/1 6/19/1 2/2/1
f 3/10/4 2/20/4 5/11/4
f 1/13/5 3/21/5 8/14/5
f 2/4/2 6/22/2 4/5/2
f 6/7/3 1/23/3 7/8/3
f 8/16/6 5/24/6 4/17/6
